{
  "accessors": [
    {
      "bufferView": 2,
      "componentType": 5126,
      "count": 56,
      "max": [
        0.077063649892807,
        0.05168496072292328,
        0.15206365287303925
      ],
      "min": [
        -0.077063649892807,
        -0.05000000074505806,
        -0.15206365287303925
      ],
      "type": "VEC3"
    },
    {
      "bufferView": 2,
      "byteOffset": 672,
      "componentType": 5126,
      "count": 56,
      "max": [
        1.0,
        1.0,
        1.0
      ],
      "min": [
        -1.0,
        -1.0,
        -1.0
      ],
      "type": "VEC3"
    },
    {
      "bufferView": 3,
      "componentType": 5126,
      "count": 56,
      "max": [
        1.0,
        1.0,
        0.0005973525694571435,
        1.0
      ],
      "min": [
        -1.0,
        -1.0,
        -1.4789804481551982e-05,
        1.0
      ],
      "type": "VEC4"
    },
    {
      "bufferView": 1,
      "componentType": 5126,
      "count": 56,
      "max": [
        0.9578533172607422,
        0.7765612602233887
      ],
      "min": [
        0.04214664548635483,
        0.04214664548635483
      ],
      "type": "VEC2"
    },
    {
      "bufferView": 1,
      "byteOffset": 448,
      "componentType": 5126,
      "count": 56,
      "max": [
        0.9578533172607422,
        0.7765612602233887
      ],
      "min": [
        0.04214664548635483,
        0.04214664548635483
      ],
      "type": "VEC2"
    },
    {
      "bufferView": 0,
      "componentType": 5125,
      "count": 84,
      "type": "SCALAR"
    },
    {
      "bufferView": 2,
      "byteOffset": 1344,
      "componentType": 5126,
      "count": 56,
      "max": [
        0.077063649892807,
        0.05168496072292328,
        0.15206365287303925
      ],
      "min": [
        -0.077063649892807,
        -0.05000000074505806,
        -0.15206365287303925
      ],
      "type": "VEC3"
    },
    {
      "bufferView": 2,
      "byteOffset": 2016,
      "componentType": 5126,
      "count": 56,
      "max": [
        1.0,
        1.0,
        1.0
      ],
      "min": [
        -1.0,
        -1.0,
        -1.0
      ],
      "type": "VEC3"
    },
    {
      "bufferView": 3,
      "byteOffset": 896,
      "componentType": 5126,
      "count": 56,
      "max": [
        1.0,
        1.0,
        0.0005973525694571435,
        1.0
      ],
      "min": [
        -1.0,
        -1.0,
        -1.4789804481551982e-05,
        1.0
      ],
      "type": "VEC4"
    },
    {
      "bufferView": 1,
      "byteOffset": 896,
      "componentType": 5126,
      "count": 56,
      "max": [
        0.9578533172607422,
        0.7765612602233887
      ],
      "min": [
        0.04214664548635483,
        0.04214664548635483
      ],
      "type": "VEC2"
    },
    {
      "bufferView": 1,
      "byteOffset": 1344,
      "componentType": 5126,
      "count": 56,
      "max": [
        0.9578533172607422,
        0.7765612602233887
      ],
      "min": [
        0.04214664548635483,
        0.04214664548635483
      ],
      "type": "VEC2"
    },
    {
      "bufferView": 1,
      "byteOffset": 1792,
      "componentType": 5126,
      "count": 56,
      "max": [
        0.9578533172607422,
        0.7765612602233887
      ],
      "min": [
        0.04214664548635483,
        0.04214664548635483
      ],
      "type": "VEC2"
    },
    {
      "bufferView": 1,
      "byteOffset": 2240,
      "componentType": 5126,
      "count": 56,
      "max": [
        0.9578533172607422,
        0.7765612602233887
      ],
      "min": [
        0.04214664548635483,
        0.04214664548635483
      ],
      "type": "VEC2"
    },
    {
      "bufferView": 0,
      "byteOffset": 336,
      "componentType": 5125,
      "count": 84,
      "type": "SCALAR"
    }
  ],
  "asset": {
    "extras": {
      "author": "hakoo (https://sketchfab.com/hakoo)",
      "license": "CC-BY-4.0 (http://creativecommons.org/licenses/by/4.0/)",
      "source": "https://sketchfab.com/3d-models/shoe-box-0095b401db2c49feb36117a8a400944d",
      "title": "Shoe Box"
    },
    "generator": "Sketchfab-13.31.0",
    "version": "2.0"
  },
  "bufferViews": [
    {
      "buffer": 0,
      "byteLength": 672,
      "name": "floatBufferViews",
      "target": 34963
    },
    {
      "buffer": 0,
      "byteLength": 2688,
      "byteOffset": 672,
      "byteStride": 8,
      "name": "floatBufferViews",
      "target": 34962
    },
    {
      "buffer": 0,
      "byteLength": 2688,
      "byteOffset": 3360,
      "byteStride": 12,
      "name": "floatBufferViews",
      "target": 34962
    },
    {
      "buffer": 0,
      "byteLength": 1792,
      "byteOffset": 6048,
      "byteStride": 16,
      "name": "floatBufferViews",
      "target": 34962
    }
  ],
  "buffers": [
    {
      "byteLength": 7840,
      "uri": "box.bin"
    }
  ],
  "images": [
    {
      "uri": "textures/Material_baseColor.png"
    },
    {
      "uri": "textures/Material_normal.png"
    },
    {
      "uri": "textures/box_bake_baseColor.png"
    },
    {
      "uri": "textures/box_bake_metallicRoughness.png"
    },
    {
      "uri": "textures/box_bake_normal.png"
    }
  ],
  "materials": [
    {
      "doubleSided": true,
      "name": "Material",
      "normalTexture": {
        "index": 1
      },
      "pbrMetallicRoughness": {
        "baseColorTexture": {
          "index": 0
        },
        "metallicFactor": 0.0
      }
    },
    {
      "doubleSided": true,
      "name": "box_bake",
      "normalTexture": {
        "index": 4
      },
      "pbrMetallicRoughness": {
        "baseColorTexture": {
          "index": 2
        },
        "metallicFactor": 0.0,
        "metallicRoughnessTexture": {
          "index": 3
        }
      }
    }
  ],
  "meshes": [
    {
      "name": "Object_0",
      "primitives": [
        {
          "attributes": {
            "NORMAL": 1,
            "POSITION": 0,
            "TANGENT": 2,
            "TEXCOORD_0": 3,
            "TEXCOORD_1": 4
          },
          "indices": 5,
          "material": 0,
          "mode": 4
        }
      ]
    },
    {
      "name": "Object_1",
      "primitives": [
        {
          "attributes": {
            "NORMAL": 7,
            "POSITION": 6,
            "TANGENT": 8,
            "TEXCOORD_0": 9,
            "TEXCOORD_1": 10,
            "TEXCOORD_2": 11,
            "TEXCOORD_3": 12
          },
          "indices": 13,
          "material": 1,
          "mode": 4
        }
      ]
    }
  ],
  "nodes": [
    {
      "children": [
        1
      ],
      "matrix": [
        1.175074815750122,
        0.0,
        0.0,
        0.0,
        0.0,
        2.609190232205898e-16,
        -1.175074815750122,
        0.0,
        0.0,
        1.175074815750122,
        2.609190232205898e-16,
        0.0,
        0.0,
        0.0,
        0.0,
        1.0
      ],
      "name": "Sketchfab_model"
    },
    {
      "children": [
        2
      ],
      "name": "root"
    },
    {
      "children": [
        3,
        5
      ],
      "matrix": [
        1.0,
        0.0,
        0.0,
        0.0,
        0.0,
        2.220446049250313e-16,
        1.0,
        0.0,
        0.0,
        -1.0,
        2.220446049250313e-16,
        0.0,
        0.0,
        0.0,
        0.0,
        1.0
      ],
      "name": "GLTF_SceneRootNode"
    },
    {
      "children": [
        4
      ],
      "name": "box_0"
    },
    {
      "mesh": 0,
      "name": "Object_4"
    },
    {
      "children": [
        6
      ],
      "name": "box_bake_1"
    },
    {
      "mesh": 1,
      "name": "Object_6"
    }
  ],
  "samplers": [
    {
      "magFilter": 9729,
      "minFilter": 9987,
      "wrapS": 10497,
      "wrapT": 10497
    }
  ],
  "scene": 0,
  "scenes": [
    {
      "name": "Sketchfab_Scene",
      "nodes": [
        0
      ]
    }
  ],
  "textures": [
    {
      "sampler": 0,
      "source": 0
    },
    {
      "sampler": 0,
      "source": 1
    },
    {
      "sampler": 0,
      "source": 2
    },
    {
      "sampler": 0,
      "source": 3
    },
    {
      "sampler": 0,
      "source": 4
    }
  ]
}
